<?xml version="1.0" encoding="utf-8"?>
<!-- Generator: Adobe Illustrator 25.0.1, SVG Export Plug-In . SVG Version: 6.00 Build 0)  -->
<svg version="1.1" id="Layer_1" xmlns="http://www.w3.org/2000/svg" xmlns:xlink="http://www.w3.org/1999/xlink" x="0px" y="0px"
	 viewBox="0 0 32 32" style="enable-background:new 0 0 32 32;" xml:space="preserve">
<style type="text/css">
	.st0{fill:#006E36;}
</style>
<g id="Bees">
	<path class="st0" d="M19.1,12.3c-0.1,0.8-0.6,1.4-1,2c-0.3,0.4-0.5,0.8-0.8,1.2c0.1,0.2,0.2,0.3,0.3,0.5c0.1,0.2,0.2,0.3,0.4,0.5
		H14c0.2-0.2,0.3-0.5,0.5-0.7c0.2-0.2,0.2-0.4,0-0.6c-0.2-0.3-0.4-0.6-0.6-0.9c-0.5-0.6-1-1.3-1.1-2.1c-0.5,0.1-0.9,0.3-1.3,0.4
		c-1.7,0.5-3.3,1-5,1.3c-1.4,0.3-2.7,0.3-4.1-0.3c-0.5-0.2-1-0.6-1.4-0.9c-0.2-0.2-0.4-0.4-0.6-0.6c-0.6-0.9-0.4-1.7,0.6-2.2
		c0.8-0.4,1.6-0.5,2.5-0.5C5,9.4,6.4,9.6,7.9,10c1.6,0.4,3.1,0.8,4.7,1.2c0.3,0.1,0.5,0.1,0.7-0.1c0.4-0.4,1-0.5,1.6-0.6
		c0.2,0,0.3-0.1,0.5-0.1c0.1-0.4-0.1-0.6-0.4-0.7c-0.2-0.1-0.5-0.2-0.7-0.3c-0.5-0.2-0.8-0.6-0.9-1.2c-0.1-0.4,0-0.6,0.4-0.8
		c0.1,0,0.2-0.1,0.3-0.1c0.4-0.1,0.8-0.2,1.2-0.3c0.4-0.1,0.9-0.1,1.3,0c0.4,0.1,0.8,0.3,1.2,0.3c0.7,0.1,0.9,0.5,0.6,1.1
		c-0.1,0.4-0.4,0.7-0.8,0.9c-0.2,0.1-0.4,0.2-0.7,0.3c-0.3,0.1-0.4,0.3-0.5,0.7c0.1,0,0.2,0.1,0.4,0.1c0.7,0.1,1.4,0.2,1.9,0.8
		c0.1,0.1,0.3,0.1,0.5,0c1.4-0.4,2.9-0.8,4.3-1.1c1.6-0.4,3.2-0.7,4.8-0.6c0.7,0.1,1.5,0.1,2.2,0.4c1.3,0.5,1.5,1.5,0.6,2.6
		c-0.7,0.8-1.7,1.3-2.7,1.5c-1,0.2-2.1,0.1-3.1-0.1c-2-0.4-3.9-0.9-5.8-1.6C19.5,12.4,19.3,12.3,19.1,12.3"/>
	<path class="st0" d="M19.4,23.1c-0.1,0.4-0.1,0.8-0.2,1.3h-6.3c-0.1-0.4-0.1-0.8-0.2-1.2C13,23.1,18.7,23,19.4,23.1"/>
	<path class="st0" d="M19.4,20.5c0,0.4,0,0.8,0.1,1.3h-6.9v-1.2C13,20.4,18.5,20.4,19.4,20.5"/>
	<path class="st0" d="M18.8,17.8c0.1,0.4,0.3,0.9,0.4,1.3c-0.4,0.1-5.9,0.1-6.5,0c0.1-0.4,0.2-0.7,0.4-1.1c0.1-0.2,0.3-0.2,0.4-0.2
		c0.8,0,1.5,0,2.3,0C16.8,17.8,17.8,17.8,18.8,17.8"/>
	<path class="st0" d="M28.8,14.8c-0.3,0.2-0.6,0.4-0.9,0.6c-0.7,0.4-1.4,0.6-2.1,0.6c-0.4,0-0.8-0.1-1.1-0.2c-1.4-0.5-2.8-1.2-4.1-2
		c-0.4-0.2-0.8-0.5-1.1-0.8c0.6,0.2,1.2,0.4,1.9,0.6c1.1,0.3,2.2,0.6,3.3,0.8c1.3,0.3,2.7,0.5,4.1,0.2
		C28.8,14.8,28.8,14.8,28.8,14.8"/>
	<path class="st0" d="M13.3,15c0.1,0.2,0.2,0.3,0.3,0.5c-0.9,1-1.7,2.1-2.8,2.8c-0.6,0.4-1,0.8-0.9,1.6c0,0.9-0.1,1.8-0.2,2.7
		c0,0.4-0.1,0.6-0.5,0.8c-0.2,0.1-0.5,0.3-0.7,0.4c-0.1,0-0.2,0-0.3,0c0-0.1,0-0.2,0.1-0.3c0.1-0.1,0.2-0.2,0.3-0.2
		C9,23,9.1,22.6,9.1,22.1c0-1,0-2,0-3c0-0.4,0.1-0.7,0.4-0.9c1.1-0.9,2.3-1.9,3.4-2.9C13,15.2,13.1,15.1,13.3,15"/>
	<path class="st0" d="M18.4,15.5c0.1-0.2,0.2-0.3,0.2-0.4c0,0,0.1-0.1,0.1-0.1c0.4,0.3,0.8,0.6,1.1,1c0.9,0.7,1.7,1.5,2.6,2.2
		c0.3,0.3,0.5,0.5,0.5,1c0,1.1,0,2.2,0,3.4c0,0.3,0.1,0.5,0.3,0.6c0.3,0.1,0.5,0.3,0.7,0.5c-0.1,0.3-0.2,0.4-0.4,0.2
		c-0.3-0.2-0.6-0.3-0.9-0.6c-0.1-0.1-0.2-0.3-0.2-0.4c-0.1-0.7-0.1-1.4-0.2-2.1c0-0.5-0.1-1-0.1-1.5c0-0.1-0.1-0.3-0.2-0.4
		c-0.4-0.3-0.8-0.6-1.2-0.9c-0.5-0.3-0.9-0.7-1.2-1.2C19.1,16.2,18.8,15.9,18.4,15.5"/>
	<path class="st0" d="M3.3,14.8c0.1,0,0.2,0,0.2,0c1.5,0.3,2.9,0,4.4-0.4c1.4-0.3,2.7-0.8,4.1-1.1c0.1,0,0.2,0,0.3,0
		c-0.3,0.2-0.5,0.3-0.8,0.5c-1.2,0.7-2.5,1.4-3.8,2c-1.5,0.7-2.8,0.2-4.1-0.6c-0.1-0.1-0.2-0.1-0.2-0.2C3.3,14.9,3.3,14.8,3.3,14.8"
		/>
	<path class="st0" d="M18.7,25.8c-0.2,0.4-0.3,0.8-0.5,1.1c-0.1,0.1-0.2,0.2-0.4,0.2c-1.2,0-2.4,0-3.7,0c-0.2,0-0.3,0-0.4-0.2
		c-0.1-0.3-0.3-0.7-0.5-1.1H18.7z"/>
	<path class="st0" d="M13,10c-0.3,0.2-0.5,0.4-0.7,0.7c-0.4-0.3-0.9-0.6-1.3-0.9c-0.2-0.1-0.3-0.3-0.3-0.5c-0.4-0.9-0.8-1.8-1.2-2.7
		C9.3,6.1,9,5.8,8.6,5.6c-0.1,0-0.3-0.1-0.4-0.2C8.2,5.4,8.2,5.2,8.1,5.1C8.2,5.1,8.3,5,8.4,5c0.4,0.1,0.8,0.3,1.1,0.5
		c0.1,0.1,0.2,0.2,0.3,0.4c0.5,0.9,1,1.8,1.5,2.8c0.1,0.3,0.3,0.5,0.5,0.6C12.2,9.5,12.6,9.8,13,10"/>
	<path class="st0" d="M19.7,10.7c-0.2-0.2-0.5-0.4-0.7-0.7c0.4-0.2,0.8-0.5,1.2-0.7c0.2-0.1,0.4-0.3,0.5-0.6c0.5-0.9,1-1.8,1.5-2.8
		c0.2-0.3,0.3-0.5,0.7-0.6c0.2-0.1,0.5-0.2,0.7-0.3C23.7,5,23.8,5,23.9,5.1c0,0.1-0.1,0.2-0.1,0.3c-0.1,0.1-0.2,0.1-0.3,0.2
		c-0.5,0.2-0.7,0.5-0.9,1c-0.4,0.9-0.8,1.8-1.2,2.7c-0.1,0.2-0.2,0.4-0.4,0.5C20.5,10.1,20.1,10.4,19.7,10.7"/>
	<path class="st0" d="M20,14.3c0.1,0.1,0.2,0.1,0.3,0.2c1.1,0.6,2.3,1.2,3.4,1.8c0.2,0.1,0.4,0.3,0.5,0.5c0.3,0.7,0.7,1.4,1,2.1
		c0.1,0.3,0.3,0.6,0.7,0.7c0.2,0,0.5,0.1,0.4,0.4c-0.1,0.2-0.3,0.1-0.5,0.1c-0.5-0.1-0.8-0.4-1-0.8c-0.3-0.7-0.7-1.3-1.1-1.9
		c-0.2-0.2-0.4-0.5-0.6-0.6c-0.9-0.7-1.9-1.3-2.9-2C20.1,14.5,20,14.5,20,14.3C20,14.4,20,14.4,20,14.3"/>
	<path class="st0" d="M12.2,14.3c-1.1,0.8-2.2,1.5-3.2,2.3c-0.2,0.2-0.4,0.4-0.6,0.6c-0.5,0.7-0.9,1.5-1.3,2.2
		c-0.3,0.5-0.8,0.5-1.2,0.6c0,0-0.2-0.1-0.2-0.1c0-0.1,0-0.2,0.1-0.2c0.1-0.1,0.2-0.1,0.4-0.2c0.3-0.1,0.5-0.3,0.6-0.5
		c0.3-0.7,0.7-1.5,1-2.2c0.1-0.2,0.2-0.3,0.4-0.4c1.3-0.7,2.6-1.3,3.8-2C12,14.3,12.1,14.3,12.2,14.3C12.2,14.3,12.2,14.3,12.2,14.3
		"/>
	<path class="st0" d="M14.9,6.1c-0.2,0.1-0.3,0.1-0.3,0.1c-0.5-0.8-0.9-1.5-1.4-2.2c-0.5-0.7-1.3-1.1-2.1-1.3c0-0.2,0.1-0.2,0.3-0.2
		c0.9,0.2,1.6,0.7,2.2,1.4C14.2,4.6,14.6,5.3,14.9,6.1"/>
	<path class="st0" d="M17.4,6.2c-0.1,0-0.2-0.1-0.3-0.1c0-0.1,0-0.1,0-0.1c0.4-1,1-2,1.9-2.7c0.5-0.4,1-0.6,1.5-0.8
		c0.1,0,0.2,0,0.3,0.1C20,3,19.2,3.3,18.7,4C18.3,4.7,17.9,5.5,17.4,6.2"/>
	<path class="st0" d="M14.9,28.4h2.3c-0.3,0.4-0.6,0.7-0.9,1c-0.2,0.1-0.4,0.1-0.6,0C15.4,29.1,15.1,28.8,14.9,28.4
		C14.8,28.5,14.8,28.5,14.9,28.4"/>
</g>
</svg>
