<?xml version="1.0" encoding="utf-8"?>
<!-- Generator: Adobe Illustrator 25.0.1, SVG Export Plug-In . SVG Version: 6.00 Build 0)  -->
<svg version="1.1" id="Layer_1" xmlns="http://www.w3.org/2000/svg" xmlns:xlink="http://www.w3.org/1999/xlink" x="0px" y="0px"
	 viewBox="0 0 32 32" style="enable-background:new 0 0 32 32;" xml:space="preserve">
<style type="text/css">
	.st0{fill:#006E36;}
</style>
<path id="Mosquitoes" class="st0" d="M10.1,31.2c0.4-1,0.7-1.9,1.1-2.9c0.6-1.7,1.3-3.3,1.9-5c0.1-0.2,0.1-0.5,0-0.7
	c-0.6-1.8-1.2-3.6-1.8-5.4c-0.1-0.3-0.1-0.5,0.1-0.7c0.9-1.1,1.7-2.2,2.6-3.2c0.1-0.1,0.2-0.2,0.3-0.5c-1,0.1-1.9,0.2-2.8,0.4
	c-0.1,0-0.2,0.2-0.3,0.3c-0.8,1.9-1.5,3.9-2.3,5.9c-0.1,0.3-0.3,0.5-0.6,0.6c-1.9,0.8-3.8,1.6-5.8,2.4c0.1-0.1,0.2-0.1,0.3-0.2
	c1.7-0.8,3.3-1.7,5-2.5c0.3-0.1,0.4-0.3,0.5-0.6c0.7-1.8,1.3-3.6,2-5.5c0-0.1,0.1-0.2,0.1-0.3c-0.9,0.1-1.8,0.3-2.7,0.4
	c-1.5,0.2-3,0.4-4.4-0.1c-0.7-0.2-1.3-0.6-1.8-1.1c-0.7-0.8-0.6-1.4,0.3-2C2.6,9.8,3.5,9.8,4.4,10c1.3,0.2,2.6,0.6,3.9,0.8
	c1.2,0.1,2.4,0.1,3.6,0.1c0.5,0,1-0.4,1.4-0.6c0.4-0.2,0.9-0.4,1.4-0.7c-0.5-0.2-0.9-0.4-1.3-0.6c-0.7-0.3-1.4-0.7-2.1-1
	C11.2,7.8,11,7.7,11,7.4c-0.1-1.3-0.2-2.6-0.3-3.9c0-0.3-0.1-0.5-0.4-0.6C9,2.2,7.7,1.5,6.5,0.7c0.1,0,0.1,0,0.2,0
	c1.3,0.7,2.6,1.3,4,2c0.2,0.1,0.3,0.3,0.3,0.5c0.2,1.3,0.3,2.6,0.5,3.9c0,0.2,0.1,0.4,0.3,0.5c1,0.5,2,0.9,3,1.4
	c0-0.7,0.4-1.1,1-1.3c-0.1-0.1-0.3-0.1-0.4-0.2C15.2,7.4,15,7.2,15,7c0-0.2,0.2-0.5,0.3-0.5c0.5-0.2,0.6-0.5,0.6-1
	c0-0.9,0-1.8,0.1-2.7c0-0.2,0-0.3,0.1-0.5c0,0.1,0,0.2,0,0.4c0,1,0.1,2.1,0.1,3.1c0,0.3,0.1,0.5,0.4,0.6C16.7,6.5,17,6.6,17,6.8
	c0,0.2-0.1,0.5-0.3,0.6c-0.1,0.1-0.3,0.2-0.6,0.3c0.8,0.2,1.2,0.5,1.2,1.3c1.1-0.5,2.1-0.9,3.1-1.4c0.1-0.1,0.2-0.3,0.2-0.4
	c0.2-1.3,0.3-2.6,0.5-3.9c0-0.2,0.2-0.4,0.3-0.4c1.3-0.7,2.7-1.4,4-2c0,0,0.1,0,0.2,0c-0.8,0.5-1.7,0.9-2.5,1.4
	c-0.4,0.2-0.8,0.5-1.3,0.7c-0.3,0.2-0.4,0.4-0.4,0.7c-0.1,1.3-0.2,2.6-0.4,3.9c0,0.1-0.2,0.3-0.3,0.4c-0.9,0.5-1.9,0.9-2.8,1.4
	c-0.2,0.1-0.3,0.2-0.6,0.3c1,0.4,1.8,1,2.7,1.2c0.9,0.2,1.8,0.2,2.7,0.1c1.4-0.2,2.9-0.6,4.3-0.8c0.7-0.1,1.5-0.1,2.2-0.1
	c0.2,0,0.5,0.2,0.7,0.3c1.1,0.6,1.3,1.4,0.3,2.3c-1.2,1.1-2.7,1.4-4.3,1.3c-1.5-0.1-2.9-0.3-4.5-0.5c0.1,0.4,0.3,0.7,0.4,1.1
	c0.6,1.6,1.2,3.1,1.7,4.7c0.1,0.3,0.3,0.5,0.5,0.6c1.5,0.7,3,1.5,4.5,2.2c0.1,0.1,0.2,0.1,0.3,0.3c-0.3-0.1-0.6-0.3-1-0.4
	c-1.4-0.6-2.8-1.2-4.3-1.8c-0.3-0.1-0.4-0.3-0.5-0.6c-0.7-2-1.5-3.9-2.2-5.9c-0.1-0.3-0.2-0.4-0.5-0.4c-0.8-0.1-1.7-0.2-2.6-0.3
	c0.5,0.6,0.8,1.1,1.3,1.6c0.6,0.7,1.1,1.4,1.7,2.1c0.2,0.2,0.2,0.4,0.1,0.7c-0.6,1.8-1.3,3.6-1.9,5.4c-0.1,0.2-0.1,0.6,0,0.8
	c0.9,2.5,1.8,5,2.8,7.5c0.1,0.1,0.1,0.3,0.1,0.4c-0.4-0.9-0.8-1.8-1.2-2.7c-0.8-1.7-1.5-3.5-2.3-5.2c-0.1-0.2-0.1-0.5,0-0.7
	c0.6-1.8,1.2-3.5,1.9-5.3c0.1-0.4,0.1-0.6-0.1-0.9c-0.9-1.2-1.8-2.4-2.7-3.6c-0.2-0.2-0.4-0.5-0.7-0.6c0.2,0.7,0.3,1.4,0.5,2.2
	c0.5,2,0.2,4-0.5,5.9c-0.1,0.2-0.3,0.4-0.5,0.6c-0.2-0.2-0.4-0.4-0.5-0.6c-0.8-2-1.1-4.1-0.4-6.3c0.2-0.6,0.3-1.1,0.3-1.8
	c-0.2,0.2-0.4,0.4-0.6,0.6c-1,1.3-2,2.6-2.9,3.9c-0.1,0.1-0.1,0.4,0,0.6c0.6,1.7,1.2,3.5,1.9,5.2c0.1,0.4,0.1,0.6,0,1
	c-1.1,2.5-2.2,5.1-3.3,7.6C10.3,31.1,10.2,31.2,10.1,31.2C10.2,31.2,10.1,31.2,10.1,31.2z M16.9,9.9c-0.1,0.4-0.2,0.8-0.3,1.2
	c0.7-0.1,1.4-0.1,2.2-0.2C18.1,10.5,17.6,10.2,16.9,9.9z M15,9.9c-0.6,0.3-1.2,0.6-1.8,1c0.8,0.1,1.5,0.1,2.2,0.2
	C15.3,10.7,15.2,10.3,15,9.9z"/>
</svg>
