<?xml version="1.0" encoding="utf-8"?>
<!-- Generator: Adobe Illustrator 25.0.1, SVG Export Plug-In . SVG Version: 6.00 Build 0)  -->
<svg version="1.1" id="Layer_1" xmlns="http://www.w3.org/2000/svg" xmlns:xlink="http://www.w3.org/1999/xlink" x="0px" y="0px"
	 viewBox="0 0 32 32" style="enable-background:new 0 0 32 32;" xml:space="preserve">
<style type="text/css">
	.st0{fill:#006E36;}
</style>
<g id="Termites">
	<path class="st0" d="M18.5,21c-1.7,0.3-3.4,0.3-5.1,0c-0.1,0-0.3-0.1-0.4,0c-0.1,0.2-0.1,0.4,0,0.5c0.1,0.2,0.2,0.2,0.4,0.3
		c0.8,0.2,1.7,0.2,2.6,0.2c0.2,0,0.4,0,0.5,0c0.7-0.1,1.5,0,2.2-0.3c0.3-0.1,0.4-0.3,0.4-0.7C18.9,20.8,18.7,21,18.5,21"/>
	<path class="st0" d="M17,22.2c-1.3,0-2.6,0-3.9-0.2c-0.4-0.1-0.5,0.1-0.3,0.4c0.1,0.3,0.4,0.4,0.7,0.4c0.8,0.2,1.7,0.2,2.6,0.2
		c0.6-0.1,1.4-0.1,2.1-0.2c0.2,0,0.5-0.1,0.7-0.2c0.3-0.1,0.4-0.4,0.3-0.6c-0.1-0.3-0.3-0.1-0.5-0.1C18.2,22.1,17.6,22.2,17,22.2"/>
	<path class="st0" d="M18.8,23c-0.8,0.2-1.7,0.2-2.6,0.3c-1.1,0-2.2-0.1-3.2-0.3c-0.3-0.1-0.3,0-0.3,0.3c0,0.5,0.4,0.6,0.7,0.6
		c0.8,0.1,1.7,0.2,2.5,0.2c0.9,0,1.7-0.1,2.5-0.2c0.2,0,0.3-0.1,0.5-0.2c0.3-0.1,0.3-0.4,0.2-0.6C19.2,22.8,18.9,23,18.8,23"/>
	<path class="st0" d="M18.7,25c-1.8,0.3-3.5,0.3-5.3,0c-0.1,0-0.4-0.2-0.4,0c-0.1,0.2,0,0.4,0.1,0.5c0.1,0.2,0.3,0.3,0.6,0.3
		c0.8,0.1,1.5,0.2,2.3,0.2c0.8,0,1.5-0.1,2.3-0.2c0.4-0.1,0.6-0.2,0.7-0.6C19.1,25,19,24.9,18.7,25"/>
	<path class="st0" d="M18.9,24c-1.9,0.4-3.8,0.4-5.7,0c-0.1,0-0.3-0.2-0.4,0c-0.1,0.1,0,0.3,0.1,0.5c0.1,0.2,0.3,0.3,0.5,0.3
		C14.2,25,15.1,25,16,25c0.9,0,1.8,0,2.6-0.2c0.3-0.1,0.4-0.2,0.5-0.5C19.2,24,19.2,23.9,18.9,24"/>
	<path class="st0" d="M18.3,20.1c-0.1,0-0.3,0.1-0.4,0.1c-1.4,0.1-2.8,0.2-4.2-0.1c-0.3-0.1-0.4,0.1-0.4,0.3c0,0.3,0.2,0.4,0.5,0.5
		C14.5,21,15.3,21,16,21c0.6,0,1.2,0,1.7-0.1c0.2,0,0.5,0,0.7-0.1c0.3-0.1,0.3-0.3,0.2-0.6C18.6,19.9,18.4,20.1,18.3,20.1"/>
	<path class="st0" d="M13.2,26.1c0.2,0.6,0.4,0.9,0.9,0.9c1.2,0.1,2.5,0.1,3.7,0c0.5-0.1,0.8-0.3,0.9-0.9
		C16.9,26.4,15.1,26.4,13.2,26.1"/>
	<path class="st0" d="M13.6,27.1c0.2,0.6,0.6,0.8,1.2,0.9c0.8,0.1,1.6,0.1,2.4,0c0.6-0.1,0.9-0.3,1.2-0.9
		C16.8,27.4,15.2,27.3,13.6,27.1"/>
	<path class="st0" d="M11.7,13c0.4,0.7,0.6,1.6,0.8,2.3c0.2,0.6,0.6,0.9,1.1,0.9c0.2,0,0.4,0,0.5-0.2c0.1-0.3-0.2-0.3-0.3-0.4
		c-0.4-0.1-0.6-0.4-0.8-0.7c-0.4-0.8-0.9-1.6-1.2-2.5c-0.2-0.5-0.5-1-0.9-1.4c-0.1-0.1-0.3-0.4-0.5-0.2c-0.2,0.2,0,0.3,0.1,0.5
		C11,11.9,11.4,12.5,11.7,13"/>
	<path class="st0" d="M14,18.8c-0.1,0-0.2-0.1-0.2,0c-0.1,0.2-0.2,0.5-0.2,0.7c0,0.2,0.2,0.3,0.4,0.4c0.3,0.1,0.6,0.1,1,0.1
		c0.1,0,0.2,0,0.3,0c0.5,0,0.6-0.1,0.6-0.5c0-0.4-0.1-0.6-0.6-0.6C14.9,18.8,14.4,18.8,14,18.8"/>
	<path class="st0" d="M13.6,18.3c-1.2-0.5-2.3-0.6-3.6-0.3c-0.1,0-0.3,0.1-0.4,0.2c-0.1,0.1-0.2,0.2-0.2,0.4c0,0.2,0.2,0.2,0.3,0.3
		c0.1,0,0.2,0,0.4-0.1c0.7-0.2,1.4-0.3,2.1-0.3c0.4,0,0.8,0.1,1.2,0.2c0.1,0,0.3,0.1,0.3-0.1C13.8,18.4,13.7,18.4,13.6,18.3"/>
	<path class="st0" d="M17.9,18.8c-0.4,0.1-0.8,0.1-1.2,0.1c-0.5,0-0.6,0.2-0.6,0.6c0,0.4,0.1,0.5,0.6,0.5c0.1,0,0.2,0,0.3,0
		c0.3,0,0.7,0,1-0.1c0.4-0.1,0.4-0.4,0.3-0.7C18.3,18.8,18.2,18.7,17.9,18.8"/>
	<path class="st0" d="M13.7,18c0,0.3,0.2,0.5,0.5,0.5c0.3,0,0.6,0.1,0.8,0.1c0,0,0,0,0,0c0.1,0,0.2,0,0.3,0c0.4,0.1,0.5-0.1,0.6-0.5
		c0-0.4-0.1-0.6-0.5-0.6c-0.4,0-0.7,0-1.1-0.1C13.8,17.4,13.7,17.5,13.7,18"/>
	<path class="st0" d="M18.2,17.6c0-0.2-0.1-0.2-0.2-0.2c-0.5,0-1,0.1-1.5,0.1c-0.4,0-0.4,0.4-0.4,0.7c0,0.3,0.1,0.5,0.4,0.4
		c0.3,0,0.7,0,1-0.1C18.2,18.5,18.4,18.2,18.2,17.6"/>
	<path class="st0" d="M13.9,16.8c-0.1,0.3,0,0.4,0.3,0.4c0.3,0,0.5,0,0.9,0.1c0,0,0.1,0,0.3,0c0.4,0,0.5-0.1,0.5-0.5
		c0-0.4-0.1-0.6-0.5-0.6c-0.2,0-0.4,0-0.6,0C14.3,16.1,14,16.3,13.9,16.8"/>
	<path class="st0" d="M16.1,16.8c0,0.4,0.1,0.5,0.6,0.5c0.1,0,0.2,0,0.2,0c0,0,0,0,0,0c0.3,0,0.6-0.1,1-0.1c0.3,0,0.3-0.1,0.2-0.3
		c-0.1-0.5-0.4-0.7-0.9-0.7c-0.2,0-0.3,0-0.5,0C16.2,16.2,16.1,16.3,16.1,16.8"/>
	<path class="st0" d="M21.7,27.5c-0.1-0.7-0.1-1.4,0.1-2.2c0.4-1.1,0.3-2.3-0.1-3.4c0.1-0.7-0.4-1-0.8-1.4c-0.6-0.5-1.3-0.7-2.1-0.9
		c-0.1,0-0.3-0.1-0.3,0.1c0,0.2,0.1,0.2,0.3,0.2c0.5,0.2,1,0.4,1.4,0.8c0.5,0.5,1.4,0.9,1.5,1.7c0,1.4-0.2,2.8-0.4,4.2
		c0,0.3,0,0.6,0.1,0.9c0,0.1,0,0.3,0.2,0.3C21.8,27.8,21.7,27.7,21.7,27.5"/>
	<path class="st0" d="M14.4,28.2c0.7,1,2.3,1.3,3.2,0C16.5,28.3,15.4,28.3,14.4,28.2"/>
	<path class="st0" d="M19.4,14.2c-0.3,0.7-0.6,1.4-1.4,1.6c-0.1,0-0.2,0.1-0.1,0.2c0,0.1,0.1,0.2,0.2,0.2c0.4,0.1,0.7,0.1,0.9-0.2
		c0.6-0.6,0.7-1.4,0.9-2.2c0,0,0,0,0,0c0.1-0.1,0.1-0.1,0.2-0.2c0.3-0.6,0.6-1.2,1-1.8c0.1-0.2,0.3-0.4,0.5-0.5
		c0.1-0.1,0.1-0.3,0-0.4c-0.1-0.1-0.3-0.1-0.4,0.1c-0.1,0-0.1,0.1-0.1,0.2c-0.6,0.8-1.1,1.7-1.3,2.7C19.5,13.9,19.4,14,19.4,14.2"/>
	<path class="st0" d="M9.4,18.8c0-0.1,0-0.2-0.1-0.2c-0.1,0-0.1,0.1-0.2,0.2c-0.5,1-1,2-1.8,2.8c-0.1,0.1-0.2,0.4-0.1,0.5
		c0.2,0.2,0.3,0,0.5-0.1c0.5-0.5,0.8-1.2,1.1-1.8C9.1,19.8,9.3,19.3,9.4,18.8"/>
	<path class="st0" d="M24.5,21.6c-0.7-0.8-1.3-1.7-1.7-2.7c-0.1-0.1-0.1-0.2-0.2-0.3c0-0.4-0.2-0.6-0.8-0.7
		c-1.1-0.2-2.1-0.1-3.1,0.3c-0.2,0.1-0.5,0-0.5,0.3c0.1,0.3,0.4,0.1,0.5,0.1c1-0.2,2-0.2,3,0.1c0.2,0.1,0.5,0.1,0.7,0
		c0.2,0.8,0.5,1.5,0.9,2.2c0.2,0.4,0.5,0.8,0.8,1.2c0.1,0.1,0.2,0.2,0.4,0.1c0.2-0.1,0.1-0.3,0-0.4C24.6,21.7,24.6,21.7,24.5,21.6"
		/>
	<path class="st0" d="M10.7,21.7c0.8-0.8,1.6-1.5,2.7-1.9c0.1,0,0.1-0.1,0.1-0.2c0-0.1-0.1-0.1-0.2-0.1c-1.1,0.2-2.1,0.7-2.8,1.5
		c-0.2,0.2-0.3,0.4-0.1,0.6c-0.1,0.1-0.1,0.2-0.2,0.3c-0.2,1-0.2,2-0.1,3.1c0,0.2,0,0.3,0.2,0.4c0.1,0.5,0.1,0.9,0.1,1.4
		c0,0.3-0.2,0.6-0.1,0.9c0,0.2-0.1,0.4-0.1,0.6c-0.2,0.4-0.2,0.8-0.5,1.1c0,0,0,0,0,0c0,0,0,0,0,0c0.2,0,0.2,0.1,0.1,0.2
		c-0.1,0.2-0.3,0.2-0.2,0.5c0,0.2-0.1,0.3-0.3,0.4c-0.2,0.1,0,0.2,0,0.2c0.1,0,0.3,0.1,0.3-0.2c0-0.2,0-0.3,0.2-0.4
		c0.1,0.1,0.1,0.1,0.2-0.1c0-0.2,0-0.5,0.2-0.7c0.1,0.1,0.2,0.2,0.2,0c0-0.3,0-0.6,0-0.9c0.2-0.3,0-0.6,0.3-0.9
		c0.1-0.1,0.1-0.3,0.2-0.5c0.1-0.6,0-1.3-0.2-1.9c0.1-0.1,0.1-0.3,0-0.4c-0.2-1-0.3-1.9-0.1-2.9C10.4,21.9,10.5,21.8,10.7,21.7"/>
	<path class="st0" d="M14.9,15.9c0.1,0,0.1,0,0.2,0c0.7,0,0.9-0.1,0.8-0.8c0-0.3-0.2-0.4-0.5-0.3c-0.3,0.1-0.5,0.2-0.7,0.5
		c-0.1,0.2-0.4,0.3-0.3,0.5C14.4,16,14.7,15.9,14.9,15.9"/>
	<path class="st0" d="M16.6,14.9c-0.1,0-0.3-0.2-0.4,0c-0.2,0.2-0.1,0.5-0.1,0.8c0,0.2,0.1,0.3,0.3,0.3c0.4,0,0.8,0,1.3,0
		C17.4,15.4,17.1,15.1,16.6,14.9"/>
	<path class="st0" d="M22.9,9.6c-0.3,0.5-0.9,0.8-1.2,1.2c0.5-0.2,0.9-0.5,1.3-0.6c0.3-0.1,0.2-0.2,0.2-0.4
		C23,9.9,23.1,9.6,22.9,9.6"/>
	<path class="st0" d="M23.2,9.8L23.2,9.8C23.2,9.8,23.2,9.8,23.2,9.8C23.2,9.8,23.2,9.8,23.2,9.8C23.2,9.8,23.2,9.8,23.2,9.8
		C23.2,9.8,23.2,9.8,23.2,9.8z"/>
	<path class="st0" d="M8.8,10.1c0.5,0.1,0.9,0.4,1.3,0.6c-0.3-0.4-0.8-0.7-1-1.1C8.9,9.6,9,9.8,8.8,9.8C8.9,10,8.5,10.1,8.8,10.1"/>
	<path class="st0" d="M5.9,23.5c-0.2,0.1-0.6,0.1-0.6,0.5h0c-0.4,0-0.7,0.4-1.1,0.3c0,0,0,0.1,0,0.1c0,0.1,0,0.2,0,0.3
		c0.1-0.1,0.3-0.2,0.4-0.3c0.3,0,0.5-0.1,0.7-0.4c0.2,0.1,0.3,0.1,0.4-0.1C5.7,23.8,5.8,23.7,5.9,23.5c0.2-0.2,0.3,0.3,0.4,0.1
		c0.2-0.4,0.5-0.7,0.8-1.2c-0.4,0.2-0.7,0.5-1,0.7C6,23.2,5.7,23.3,5.9,23.5"/>
	<path class="st0" d="M8.8,9.8C8.8,9.8,8.8,9.8,8.8,9.8C8.8,9.8,8.8,9.8,8.8,9.8C8.8,9.8,8.8,9.8,8.8,9.8C8.8,9.8,8.8,9.8,8.8,9.8z"
		/>
	<path class="st0" d="M25.2,9c-0.3,0-0.4,0.3-0.7,0.1c-0.1-0.1-0.1,0-0.2,0.1c-0.1,0.1-0.2,0.1-0.3,0.2c-0.4-0.1-0.6,0.2-0.8,0.5
		c0.4,0,0.7-0.2,1-0.4c0.1,0,0.3,0.1,0.4-0.1c0.1,0,0.2,0,0.3,0C25.3,9.4,25.4,9.3,25.2,9"/>
	<path class="st0" d="M22.3,29.5C22.2,29.5,22.2,29.4,22.3,29.5c-0.3-0.5-0.4-0.9-0.6-1.3c-0.1,0.5,0.1,1,0,1.4c0,0.1,0.1,0,0.2,0
		c0.2,0.2,0.1,0.5,0.2,0.8c0.1-0.1,0.3-0.1,0.4-0.2C22.4,30,22,29.9,22.3,29.5"/>
	<path class="st0" d="M7.1,9.3c0.1,0,0.2,0,0.3-0.1c0,0,0,0,0,0C7.2,9.1,6.9,9,6.7,8.9C6.6,9.3,6.7,9.4,7.1,9.3"/>
	<path class="st0" d="M27.3,24.2C27.3,24.2,27.3,24.2,27.3,24.2C27.3,24.2,27.3,24.1,27.3,24.2c-0.5-0.1-0.7-0.6-1.1-0.7
		c-0.1,0-0.1-0.1,0-0.2c0,0,0.1,0,0.1-0.1c0,0,0,0,0,0c-0.3-0.1-0.5-0.3-0.8-0.5c-0.1-0.1-0.2-0.2-0.4-0.1c0.3,0.3,0.5,0.6,0.7,1
		c0.1,0.3,0.1,0,0.2-0.1c0.3,0.4,0.8,0.5,1.1,0.8c0.2,0,0.4,0.1,0.6,0.1c0.2,0.1,0.2-0.1,0.3-0.2C27.6,24.3,27.4,24.4,27.3,24.2"/>
	<path class="st0" d="M7.4,9.2c0.2,0.3,0.5,0.2,0.7,0.2c0,0.1-0.2,0.2,0,0.2c0.2,0,0.5,0.1,0.7,0.1C8.7,9.7,8.5,9.6,8.4,9.4
		c-0.1-0.2-0.2,0-0.3,0C7.9,9.3,7.8,9.3,7.7,9.1C7.5,8.9,7.5,9.2,7.4,9.2C7.4,9.2,7.4,9.2,7.4,9.2"/>
	<path class="st0" d="M9.3,31C9.3,31,9.3,31,9.3,31C9.3,31,9.3,30.9,9.3,31C9.3,30.9,9.3,30.9,9.3,31C9.3,31,9.3,31,9.3,31"/>
	<path class="st0" d="M9.1,31.5c0-0.2,0.2-0.3,0.2-0.6C9.2,31,9.1,31.1,9,31.1C8.7,31.3,8.8,31.4,9.1,31.5"/>
	<path class="st0" d="M22.7,30.9L22.7,30.9C22.7,30.9,22.7,30.9,22.7,30.9C22.7,30.9,22.7,31,22.7,30.9C22.7,31,22.7,31,22.7,30.9
		C22.7,31,22.7,31,22.7,30.9z"/>
	<path class="st0" d="M22.4,30.6c0.1,0.1-0.3,0.5,0.2,0.4C22.9,30.6,22.4,30.6,22.4,30.6"/>
	<path class="st0" d="M22.9,31.1c-0.1,0-0.2-0.1-0.3-0.2c0,0.2,0.1,0.4,0.2,0.6C23.1,31.4,23.2,31.3,22.9,31.1"/>
	<path class="st0" d="M11.6,1.1c0.4,0.7,0.7,1.4,0.7,2.3c0.1,0.8,0.1,1.7,0.2,2.5c0.2,1.6,0.7,3.1,1.9,4.2c-0.6,0.6-0.9,1.4-1,2.2
		c-0.1,1.2,0.5,1.9,1.6,2.2c0.5,0.1,1,0.1,1.5,0.1c1.4-0.2,2-1.1,1.9-2.4c-0.1-0.8-0.5-1.5-1-2.1c0.3-0.1,0.5-0.4,0.6-0.6
		c1-1.4,1.3-3.1,1.4-4.8c0.1-1.2,0.1-2.4,0.8-3.4C20.5,1,20.7,0.7,21,0.5c-0.3,0.1-0.6,0.3-0.7,0.6c-0.1,0.1-0.1,0.1-0.2,0.2
		c-0.5,0.8-0.7,1.8-0.7,2.7c-0.1,2-0.5,3.9-1.8,5.5c-0.1,0.1-0.2,0.3-0.2,0.4c-0.3-0.2-0.5-0.4-0.8-0.6c0.6-0.4,0.5-1.2-0.2-1.8
		c0.4,0.6-0.2,1.1-0.1,1.6c0,0.1-0.1,0.1-0.1,0.1c-0.2,0-0.3,0-0.5,0c-0.1,0-0.2,0-0.2-0.1c0.1-0.5-0.5-0.9-0.2-1.5
		c-0.7,0.7-0.7,1.3-0.1,1.7c-0.2,0.2-0.5,0.4-0.7,0.5c0-0.2-0.2-0.4-0.3-0.6c-0.7-1-1.2-2-1.4-3.2c-0.2-0.9-0.2-1.8-0.3-2.8
		C12.4,2.6,12.3,1.8,11.6,1.1c-0.1-0.4-0.3-0.6-0.6-0.7C11.2,0.6,11.4,0.9,11.6,1.1"/>
</g>
</svg>
