<?xml version="1.0" encoding="utf-8"?>
<!-- Generator: Adobe Illustrator 25.0.1, SVG Export Plug-In . SVG Version: 6.00 Build 0)  -->
<svg version="1.1" id="Layer_1" xmlns="http://www.w3.org/2000/svg" xmlns:xlink="http://www.w3.org/1999/xlink" x="0px" y="0px"
	 viewBox="0 0 32 32" style="enable-background:new 0 0 32 32;" xml:space="preserve">
<style type="text/css">
	.st0{fill:#006E36;}
</style>
<g id="Wildlife">
	<path class="st0" d="M10.9,22.8c0.4-0.4,0.7-0.8,0.6-1.4c0-0.3,0.1-0.6,0.1-0.9c0.1-1,0.5-2,1.2-2.8c0.7-0.8,1.4-0.8,2.1-0.1
		c0.4,0.5,0.9,0.7,1.5,0.8c0.5,0.1,0.9,0.1,1.3-0.4c0.4-0.5,0.8-0.5,1.4-0.2c0.5,0.3,0.9,0.6,1.1,1.1c0.2,0.6,0.5,1.1,0.6,1.7
		c0.3,1.5,1.2,2.4,2.6,2.9c0.9,0.3,1.7,0.9,1.9,1.8c0.1,0.4,0,0.8,0,1.3c-0.1,0.7-0.2,1.4-0.5,2c-0.3,0.6-0.8,1.2-1.4,1.5
		c-0.8,0.4-1.8,0.2-2.5-0.4c-1.3-1.1-1.8-4.9-4.3-3.2c-0.9,0.6-1.6,1.5-2.3,2.2c-0.5,0.6-1.1,1-1.8,1.4c-1.7,0.8-2.8-0.7-3.1-2.1
		c-0.2-0.6-0.3-1.3-0.2-2C9.1,24.7,10,23.6,10.9,22.8"/>
	<path class="st0" d="M20.2,5.7c0.1,0.2,0.2,0.4,0.2,0.6c0.2,2-0.1,3.9-0.4,5.8c-0.1,0.8-0.3,1.6-0.5,2.4c-0.1,0.4-0.1,0.8-0.3,1.1
		c0,0.1-0.1,0.2-0.1,0.2c-0.1,0.2-0.2,0.4-0.4,0.5c-0.3,0-0.5,0-0.6-0.1c-0.1,0-0.1,0-0.1-0.1c0,0,0,0-0.1,0c-0.1,0-0.1-0.1-0.1-0.2
		c-0.1-0.1-0.1-0.3-0.1-0.5c-0.2-1.1-0.3-2.2-0.3-3.2c0-1,0.1-2,0.1-3.1c0-1.1-0.2-2.3,0.1-3.4c0.1-0.5,0.4-1.1,0.9-1.3
		C19.2,4.3,19.9,5.2,20.2,5.7"/>
	<path class="st0" d="M13.9,14.7c0,0.3,0,0.6-0.1,0.9c-0.1,0.3-0.4,0.3-0.5,0.1c-0.1-0.2-0.2-0.5-0.3-0.7c-0.5-1.4-1.1-2.8-1.6-4.3
		c-0.4-1.1-0.9-2.4-0.6-3.6c0.2-0.8,1.3-1.8,2.1-1c0.7,0.7,0.9,1.6,1,2.7c0,1.1,0,2.2,0,3.3C13.9,12.9,13.9,13.8,13.9,14.7"/>
	<path class="st0" d="M6.9,10.5c1-0.4,1.5,1.7,1.7,2.3c0.5,1.7,0.9,3.4,1.4,5.2c0.1,0.5,0.2,1.1,0.2,1.6c0,0.3-0.1,0.6-0.5,0.7
		c-0.3,0.1-0.5-0.2-0.7-0.4c-0.3-0.5-0.5-1-0.7-1.5c-0.6-1.3-1.1-2.5-1.7-3.8c-0.5-1.2-1.3-3.1,0.1-4C6.8,10.5,6.8,10.5,6.9,10.5"/>
	<path class="st0" d="M11.3,5.2c-0.4,0-0.4-0.3-0.4-0.6c0-0.1,0-0.3,0-0.3c0-0.4,0-0.7,0.1-0.9c0-0.2,0.3-0.3,0.4-0.2
		C11.6,3.6,11.9,4,12,4.5C12.2,4.8,11.7,5.1,11.3,5.2"/>
	<path class="st0" d="M5.9,10.2C5.5,10.3,5.5,10,5.4,9.7c0-0.1-0.1-0.3-0.1-0.3c0-0.3-0.1-0.6-0.1-0.9c0-0.2,0.2-0.3,0.3-0.2
		C5.9,8.7,6.3,9,6.5,9.4C6.6,9.7,6.3,10.1,5.9,10.2"/>
	<path class="st0" d="M18.8,3.7c-0.4-0.1-0.3-0.4-0.2-0.7c0-0.1,0.1-0.3,0.1-0.3c0.1-0.4,0.2-0.6,0.3-0.9c0.1-0.2,0.3-0.2,0.4-0.1
		c0.2,0.5,0.3,1,0.4,1.5C19.8,3.6,19.2,3.8,18.8,3.7"/>
	<path class="st0" d="M25.7,10.7c-0.4-0.2-0.2-0.5-0.1-0.7c0.1-0.1,0.1-0.3,0.1-0.3c0.2-0.3,0.3-0.6,0.5-0.8c0.1-0.2,0.4-0.2,0.4,0
		c0.1,0.5,0.1,1,0.1,1.5C26.6,10.8,26.1,10.9,25.7,10.7"/>
	<path class="st0" d="M22.1,19.5c0-0.1,0-0.2,0-0.3c0-1,0.2-1.9,0.3-2.9c0.2-1.2,0.8-3.1,1.7-4.1c0.5-0.6,0.8-0.9,1.5-0.6
		c1.1,0.4,0.7,2.2,0.1,3.4c-0.5,1.2-1.2,2.7-1.9,3.6c-0.3,0.5-0.7,0.9-1,1.4C22.3,20.7,22.2,20,22.1,19.5"/>
</g>
</svg>
